<svg width="1024" height="1024" viewBox="0 0 1024 1024" xmlns="http://www.w3.org/2000/svg">
  <rect width="1024" height="1024" rx="160" fill="#1a1a1a"/>
  <rect x="64" y="64" width="896" height="896" rx="128" fill="#333"/>
  <g fill="white" stroke="none">
    <!-- cmd symbol -->
    <path d="M200 200 Q200 160 240 160 L400 160 Q440 160 440 200 L440 360 Q440 400 400 400 L240 400 Q200 400 200 360 Z M240 200 L240 360 L400 360 L400 200 Z"/>
    <path d="M584 200 Q584 160 624 160 L784 160 Q824 160 824 200 L824 360 Q824 400 784 400 L624 400 Q584 400 584 360 Z M624 200 L624 360 L784 360 L784 200 Z"/>
    <path d="M200 584 Q200 544 240 544 L400 544 Q440 544 440 584 L440 744 Q440 784 400 784 L240 784 Q200 784 200 744 Z M240 584 L240 744 L400 744 L400 584 Z"/>
    <path d="M584 584 Q584 544 624 544 L784 544 Q824 544 824 584 L824 744 Q824 784 784 784 L624 784 Q584 784 584 744 Z M624 584 L624 744 L784 744 L784 584 Z"/>
    <!-- connecting lines -->
    <rect x="400" y="280" width="184" height="40" fill="white"/>
    <rect x="280" y="400" width="40" height="184" fill="white"/>
    <rect x="704" y="400" width="40" height="184" fill="white"/>
    <rect x="400" y="704" width="184" height="40" fill="white"/>
  </g>
</svg>
